<svg xmlns="http://www.w3.org/2000/svg" viewBox="0 0 512 512" width="100%" height="100%">
  <defs>
    <linearGradient id="growthGrad" x1="0%" y1="100%" x2="100%" y2="0%">
      <stop offset="0%" stop-color="#154B77"/>
      <stop offset="40%" stop-color="#2D8570"/>
      <stop offset="100%" stop-color="#8DCB64"/>
    </linearGradient>
  </defs>
  <path d="M 64,120 H 112 C 128,120 136,128 140,144 L 176,320 C 180,344 196,356 220,356 H 384 C 408,356 424,344 428,320 L 452,180" fill="none" stroke="#154B77" stroke-width="36" stroke-linecap="round" stroke-linejoin="round"/>
  <line x1="152" y1="192" x2="440" y2="192" stroke="#154B77" stroke-width="24" stroke-linecap="round"/>
  <line x1="164" y1="272" x2="410" y2="272" stroke="#154B77" stroke-width="24" stroke-linecap="round"/>
  <line x1="240" y1="132" x2="210" y2="354" stroke="#154B77" stroke-width="24" stroke-linecap="round"/>
  <line x1="350" y1="132" x2="320" y2="354" stroke="#154B77" stroke-width="24" stroke-linecap="round"/>
  <path d="M 240,300 C 310,300 320,232 260,232 C 200,232 210,160 280,160 C 330,160 380,140 450,70" fill="none" stroke="url(#growthGrad)" stroke-width="40" stroke-linecap="round"/>
  <polygon points="390,60 470,60 450,140" fill="#8DCB64" stroke="#8DCB64" stroke-width="8" stroke-linejoin="round"/>
  <circle cx="216" cy="424" r="32" fill="#154B77"/>
  <circle cx="360" cy="424" r="32" fill="#154B77"/>
</svg>
